<svg width="21" height="16" viewBox="0 0 21 16" fill="none" xmlns="http://www.w3.org/2000/svg">
<path d="M20.494 1.93666C19.7668 2.25566 18.9919 2.46711 18.184 2.56978C19.0151 2.07355 19.6495 1.29378 19.9477 0.353886C19.1728 0.815886 18.3173 1.14222 17.4055 1.32433C16.6697 0.540886 15.621 0.0556641 14.477 0.0556641C12.2575 0.0556641 10.4706 1.85722 10.4706 4.06578C10.4706 4.38355 10.4975 4.68911 10.5635 4.98C7.23048 4.81744 4.28125 3.22 2.30003 0.786553C1.95414 1.38666 1.75125 2.07355 1.75125 2.813C1.75125 4.20144 2.46625 5.43222 3.53203 6.14478C2.88792 6.13255 2.25603 5.94555 1.7207 5.651C1.7207 5.66322 1.7207 5.67911 1.7207 5.695C1.7207 7.64322 3.11037 9.26144 4.9327 9.63422C4.60637 9.72344 4.2507 9.76622 3.88159 9.76622C3.62492 9.76622 3.36581 9.75155 3.12259 9.69777C3.64203 11.2854 5.11603 12.4527 6.8687 12.4906C5.5047 13.5576 3.77281 14.2004 1.89792 14.2004C1.56914 14.2004 1.25381 14.1858 0.938477 14.1454C2.71437 15.2907 4.81903 15.9446 7.0887 15.9446C14.466 15.9446 18.4994 9.83344 18.4994 4.53633C18.4994 4.35911 18.4933 4.188 18.4847 4.01811C19.2804 3.45344 19.9489 2.74822 20.494 1.93666Z" fill="#333333"/>
</svg>
